<mxfile host="app.diagrams.net" modified="2024-08-14T02:12:47.379Z" agent="Mozilla/5.0 (Windows NT 10.0; Win64; x64) AppleWebKit/537.36 (KHTML, like Gecko) Chrome/127.0.0.0 Safari/537.36" version="24.6.5" etag="iYreWGqOP1_V6oSCUDo_" type="github">
  <diagram name="第 1 页" id="TDQRIKvZEVYMXzaRd6xJ">
    <mxGraphModel>
      <root>
        <mxCell id="0" />
        <mxCell id="1" parent="0" />
      </root>
    </mxGraphModel>
  </diagram>
</mxfile>
